<?xml version="1.0" standalone="no"?>
<!DOCTYPE svg PUBLIC "-//W3C//DTD SVG 1.1//EN" "http://www.w3.org/Graphics/SVG/1.1/DTD/svg11.dtd">
<svg xmlns="http://www.w3.org/2000/svg">
<defs >
<font id="Heebo" horiz-adv-x="1076" ><font-face
    font-family="Heebo SemiBold"
    units-per-em="2048"
    panose-1="0 0 0 0 0 0 0 0 0 0"
    ascent="2146"
    descent="-862"
    alphabetic="0" />
<glyph unicode=" " horiz-adv-x="510" />
<glyph unicode="!" horiz-adv-x="549" d="M171 436L143 1456H415L388 436H171ZM281 -15Q213 -15 175 25T136 123Q136 181 174 221T281 261Q349 261 388 221T427 123Q427 65 388 25T281 -15Z" />
<glyph unicode="&quot;" horiz-adv-x="658" d="M270 1399L234 1005H88V1388V1536H270V1399ZM578 1399L542 1005H396V1396V1536H578V1399Z" />
<glyph unicode="#" horiz-adv-x="1235" d="M505 1456H675L410 0H239L505 1456ZM890 1456H1062L796 0H625L890 1456ZM158 878V1040H1199V878H158ZM83 410V572H1123V410H83Z" />
<glyph unicode="$" horiz-adv-x="1167" d="M592 -21Q502 -21 414 3T255 81T141 225T98 448H354Q354 373 374 323T429 243T506 201T592 188Q664 188 712 212T786 280T811 381Q811 438 789 479T716 555T580 619Q451 665 355 722T206 863T153 1074Q153 1197 210 1288T369
1428T607 1477Q747 1477 849 1422T1007 1262T1063 1007H807Q807 1131 753 1199T605 1268Q538 1268 495 1243T430 1174T409 1074Q409 1020 430 980T503 906T644 839Q774 791 869 734T1016 593T1068 383Q1068 253 1008 163T842 26T592 -21ZM517 -213V56H674V-213H517ZM536
1390V1689H694V1390H536Z" />
<glyph unicode="%" horiz-adv-x="1508" d="M462 109L333 183L1044 1321L1173 1247L462 109ZM1111 -21Q1011 -21 941 20T835 129T798 279V357Q798 439 834 507T940 616T1109 657Q1210 657 1279 616T1384 507T1420 357V279Q1420 197 1385 129T1280 20T1111 -21ZM1111
131Q1161 131 1190 152T1231 206T1244 279V357Q1244 415 1211 460T1109 505Q1041 505 1008 460T974 357V279Q974 241 990 207T1037 152T1111 131ZM410 800Q310 800 241 841T135 950T99 1099V1176Q99 1259 135 1327T240 1436T408 1477Q509 1477 578 1436T684 1327T720
1176V1099Q720 1018 684 950T579 841T410 800ZM410 952Q456 952 485 973T529 1027T544 1099V1176Q544 1215 529 1249T484 1304T408 1325Q364 1325 334 1304T289 1249T274 1176V1099Q274 1061 289 1028T334 973T410 952Z" />
<glyph unicode="&amp;" horiz-adv-x="1321" d="M623 961Q686 1002 711 1041T736 1135Q736 1185 698 1227T590 1270Q515 1270 478 1223T440 1108Q440 1041 491 969T618 807L1304 0H1009L450 655Q341 786 273 888T204 1103Q204 1218 252 1301T387 1430T591 1476Q702
1476 784 1431T910 1311T955 1147Q955 1079 930 1022T861 918T759 827L449 604Q400 565 377 529T346 461T338 403Q338 342 365 293T443 215T566 186Q647 186 724 223T862 328T960 491T996 700H1217Q1217 538 1169 401T1009 166Q1002 161 993 151T976 134Q889 55
783 18T556 -20Q410 -20 303 33T139 178T81 392Q81 481 118 547T219 671T367 788L623 961Z" />
<glyph unicode="&apos;" horiz-adv-x="340" d="M269 1401L242 1009H76V1387V1536H269V1401Z" />
<glyph unicode="(" horiz-adv-x="714" d="M127 591Q127 805 174 979T296 1284T457 1501T624 1625L674 1480Q617 1437 561 1363T457 1180T382 925T354 594V571Q354 386 382 240T457 -15T560 -200T674 -321L624 -460Q544 -422 458 -336T296 -119T174 185T127 573V591Z" />
<glyph unicode=")" horiz-adv-x="720" d="M596 573Q596 364 549 191T425 -114T261 -334T90 -460L40 -321Q97 -278 153 -203T257 -17T332 239T360 571V594Q360 779 331 926T254 1182T150 1367T40 1485L90 1625Q172 1588 260 1500T425 1279T548 973T596 591V573Z" />
<glyph unicode="*" horiz-adv-x="914" d="M337 970L28 1059L83 1230L390 1109L374 1457H557L540 1103L840 1222L896 1048L581 959L786 691L637 585L455 875L275 593L126 697L337 970Z" />
<glyph unicode="+" horiz-adv-x="1140" d="M1069 572H71V804H1069V572ZM694 146H448V1206H694V146Z" />
<glyph unicode="," horiz-adv-x="469" d="M360 57Q360 -49 308 -159T169 -341L33 -264Q60 -219 83 -173T121 -74T135 46V237H360V57Z" />
<glyph unicode="-" horiz-adv-x="719" d="M625 519H86V726H625V519Z" />
<glyph unicode="." horiz-adv-x="578" d="M280 -11Q211 -11 172 29T132 128Q132 188 171 228T280 269Q349 269 388 229T428 128Q428 69 389 29T280 -11Z" />
<glyph unicode="/" horiz-adv-x="793" d="M194 -125H-3L557 1456H754L194 -125Z" />
<glyph unicode="0" horiz-adv-x="1167" d="M1065 609Q1065 384 1006 246T838 44T585 -20Q442 -20 333 43T163 245T102 609V852Q102 1078 162 1215T330 1414T583 1476Q728 1476 836 1414T1004 1215T1065 852V609ZM808 889Q808 1030 782 1113T706 1233T583 1270Q512
1270 462 1233T385 1113T358 889V573Q358 433 385 348T462 224T585 186Q658 186 707 224T782 347T808 573V889Z" />
<glyph unicode="1" horiz-adv-x="1167" d="M778 0H522V1153L169 1036V1250L748 1460H778V0Z" />
<glyph unicode="2" horiz-adv-x="1167" d="M1090 0H107V177L580 689Q657 773 700 835T762 948T780 1045Q780 1145 726 1207T571 1270Q493 1270 441 1236T361 1143T334 1008H78Q78 1137 137 1243T307 1413T575 1476Q797 1476 917 1367T1037 1071Q1037 978 998 889T890
711T732 528L431 206H1090V0Z" />
<glyph unicode="3" horiz-adv-x="1167" d="M539 844Q620 844 673 871T752 948T778 1061Q778 1125 755 1172T684 1244T563 1270Q502 1270 453 1247T375 1180T346 1078H90Q90 1195 151 1284T319 1425T558 1476Q700 1476 807 1430T974 1291T1034 1063Q1034 998 1005
934T918 818T775 734T579 702H393V844H539ZM393 782H579Q706 782 796 753T944 673T1029 553T1056 408Q1056 272 991 176T813 30T559 -20Q465 -20 378 6T223 83T114 212T74 394H331Q331 334 360 287T442 213T563 186Q674 186 737 245T800 409Q800 491 769 542T679
618T539 642H393V782Z" />
<glyph unicode="4" horiz-adv-x="1167" d="M1115 323H63L55 481L676 1456H880L662 1074L318 529H1115V323ZM938 0H682V1456H938V0Z" />
<glyph unicode="5" horiz-adv-x="1167" d="M163 721L244 1456H1037V1239H456L418 898Q450 917 509 936T643 955Q782 955 880 897T1031 729T1084 466Q1084 334 1032 224T873 47T602 -20Q510 -20 426 7T274 87T167 219T122 398H373Q384 297 444 242T601 186Q678
186 728 223T803 326T827 477Q827 558 800 620T716 718T576 754Q492 754 448 730T368 670L163 721Z" />
<glyph unicode="6" horiz-adv-x="1167" d="M872 1467V1255H855Q729 1255 637 1218T486 1113T397 956T368 760V526Q368 414 399 339T485 225T605 187Q676 187 727 224T805 326T833 474Q833 554 807 619T729 723T603 762Q532 762 476 729T387 644T351 534L258 575Q266
661 298 733T385 858T512 939T672 968Q813 968 904 900T1041 720T1087 478Q1087 338 1030 226T866 47T609 -20Q492 -20 400 24T243 147T145 330T111 553V656Q111 825 154 972T287 1230T514 1404T839 1467H872Z" />
<glyph unicode="7" horiz-adv-x="1167" d="M1081 1314L506 0H236L811 1250H67V1456H1081V1314Z" />
<glyph unicode="8" horiz-adv-x="1167" d="M585 -20Q447 -20 338 28T165 169T101 398Q101 519 163 609T335 750T583 801Q722 801 831 751T1003 610T1066 398Q1066 262 1003 169T832 28T585 -20ZM585 186Q654 186 704 213T782 291T810 413Q810 483 782 535T702
615T583 644Q514 644 464 616T386 535T358 413Q358 342 385 292T464 214T585 186ZM585 695Q453 695 351 743T191 876T133 1072Q133 1202 191 1292T351 1429T584 1476Q715 1476 816 1429T976 1292T1034 1072Q1034 962 976 877T817 743T585 695ZM585 851Q645 851
688 877T754 950T778 1061Q778 1123 755 1170T688 1243T584 1270Q524 1270 481 1245T414 1173T390 1061Q390 998 413 951T480 877T585 851Z" />
<glyph unicode="9" horiz-adv-x="1167" d="M323 204Q457 204 548 237T693 332T772 479T796 665V928Q796 1040 765 1116T682 1230T567 1269Q497 1269 447 1228T371 1119T345 971Q345 893 369 826T444 717T570 676Q623 676 668 696T745 751T797 829T819 918L914
880Q914 807 883 735T797 605T670 512T513 477Q374 477 280 544T139 722T91 965Q91 1106 148 1222T312 1407T568 1476Q684 1476 774 1432T926 1307T1020 1119T1052 884V795Q1052 661 1028 541T950 320T812 145T607 31T326 -10H304V204H323Z" />
<glyph unicode=":" horiz-adv-x="553" d="M531 -11Q462 -11 423 29T383 128Q383 188 422 228T531 269Q600 269 639 229T679 128Q679 69 640 29T531 -11ZM275 829Q206 829 167 869T127 968Q127 1028 166 1068T275 1109Q344 1109 383 1069T423 968Q423 909 384 869T275
829Z" />
<glyph unicode=";" horiz-adv-x="504" d="M256 829Q187 829 148 869T108 968Q108 1028 147 1068T256 1109Q325 1109 364 1069T404 968Q404 909 365 869T256 829ZM379 57Q379 -49 327 -159T188 -341L52 -264Q79 -219 102 -173T140 -74T154 46V237H379V57Z" />
<glyph unicode="&lt;" horiz-adv-x="1140" d="M993 409V156L147 526V698L341 652L993 409ZM342 602L147 560V732L993 1102V850L342 602Z" />
<glyph unicode="=" horiz-adv-x="1140" d="M1007 769H133V980H1007V769ZM1007 342H133V553H1007V342Z" />
<glyph unicode="&gt;" horiz-adv-x="1140" d="M137 852V1101L1003 733V560L800 612L137 852ZM801 653L1003 698V527L137 157V407L801 653Z" />
<glyph unicode="?" horiz-adv-x="1004" d="M350 435Q351 528 366 592T415 709T509 818Q555 861 591 899T649 980T671 1078Q671 1168 627 1216T496 1264Q426 1264 370 1222T312 1085H55Q57 1215 115 1302T273 1432T496 1476Q700 1476 813 1375T927 1088Q927 1000
893 930T802 800T681 678Q624 628 605 570T584 435H350ZM473 -11Q406 -11 367 28T328 125Q328 184 367 223T473 263Q541 263 580 224T619 125Q619 67 580 28T473 -11Z" />
<glyph unicode="@" horiz-adv-x="1834" d="M891 -453Q631 -453 449 -345T175 -31T94 468Q103 674 167 847T345 1150T615 1350T965 1421Q1225 1421 1402 1310T1666 998T1743 525Q1739 427 1714 330T1637 154T1507 27T1314 -21Q1180 -21 1109 69T1049 312L1100 882H1285L1234
312Q1228 255 1236 219T1261 162T1301 135T1346 127Q1416 127 1466 179T1546 321T1579 521Q1591 750 1528 917T1325 1176T961 1268Q755 1268 605 1165T371 882T275 468Q266 285 303 143T421 -97T620 -245T895 -295Q983 -295 1073 -275T1226 -223L1265 -364Q1195
-409 1090 -431T891 -453ZM810 -19Q712 -19 645 36T547 192T529 426Q547 599 612 725T774 921T983 990Q1097 990 1161 958T1285 882L1188 754Q1158 781 1112 805T1001 830Q926 830 870 784T779 649T732 426Q724 337 737 275T785 181T871 149Q903 149 939 170T1010
242T1068 384L1147 291Q1101 138 1011 60T810 -19Z" />
<glyph unicode="A" horiz-adv-x="1366" d="M295 0H14L561 1456H738L720 1239L295 0ZM646 1239L626 1456H804L1353 0H1072L646 1239ZM1056 326H266V542H1056V326Z" />
<glyph unicode="B" horiz-adv-x="1297" d="M327 650V843H645Q766 843 830 894T895 1041Q895 1147 834 1194T643 1241H409V0H143V1456H643Q886 1456 1023 1361T1161 1061Q1161 971 1119 896T990 774T776 719L696 650H327ZM244 0L362 214H685Q807 214 868 273T929
427Q929 496 905 546T830 623T696 650H411V843H780L840 769Q963 767 1041 719T1157 593T1195 426Q1195 216 1060 108T685 0H244Z" />
<glyph unicode="C" horiz-adv-x="1338" d="M1263 478Q1252 334 1183 221T990 44T688 -20Q507 -20 374 64T169 305T97 672V783Q97 995 170 1150T379 1391T696 1476Q873 1476 994 1412T1183 1233T1264 971H998Q984 1108 918 1183T696 1259Q587 1259 514 1205T403
1046T366 785V672Q366 524 399 418T503 254T688 197Q792 197 856 229T953 323T997 478H1263Z" />
<glyph unicode="D" horiz-adv-x="1336" d="M260 0V214H571Q702 214 790 271T924 435T969 692V766Q969 920 924 1025T792 1186T579 1241H254V1456H579Q774 1456 922 1370T1153 1129T1237 764V692Q1237 483 1154 328T921 86T571 0H260ZM409 0H143V1456H409V0Z" />
<glyph unicode="E" horiz-adv-x="1156" d="M1102 0H333V214H1102V0ZM409 0H143V1456H409V0ZM1002 645H333V855H1002V645ZM1098 1241H333V1456H1098V1241Z" />
<glyph unicode="F" horiz-adv-x="1126" d="M409 0H143V1456H409V0ZM995 611H342V825H995V611ZM1076 1241H342V1456H1076V1241Z" />
<glyph unicode="G" horiz-adv-x="1395" d="M1271 187Q1239 146 1173 98T998 15T727 -20Q543 -20 402 62T182 301T103 680V776Q103 998 176 1155T385 1394T705 1476Q888 1476 1007 1416T1190 1250T1270 1005H1009Q998 1081 965 1138T870 1229T711 1262Q599 1262
524 1206T411 1041T373 778V680Q373 523 416 415T541 251T739 194Q821 194 873 207T956 240T1004 277V553H712V753H1271V187Z" />
<glyph unicode="H" horiz-adv-x="1452" d="M1105 640H341V855H1105V640ZM409 0H143V1456H409V0ZM1307 0H1041V1456H1307V0Z" />
<glyph unicode="I" horiz-adv-x="585" d="M426 0H160V1456H426V0Z" />
<glyph unicode="J" horiz-adv-x="1140" d="M737 1456H1003V441Q1003 296 941 193T771 35T524 -20Q385 -20 277 27T107 173T45 421H312Q312 297 370 246T524 194Q587 194 635 223T710 306T737 441V1456Z" />
<glyph unicode="K" horiz-adv-x="1295" d="M409 0H143V1456H409V0ZM697 747L360 389L313 654L548 956L957 1456H1283L697 747ZM528 682L714 861L1308 0H991L528 682Z" />
<glyph unicode="L" horiz-adv-x="1107" d="M1063 0H333V214H1063V0ZM409 0H143V1456H409V0Z" />
<glyph unicode="M" horiz-adv-x="1793" d="M489 1456L896 357L1301 1456H1536L989 0H802L254 1456H489ZM369 1456L409 453V0H143V1456H369ZM1649 1456V0H1382V453L1422 1456H1649Z" />
<glyph unicode="N" horiz-adv-x="1451" d="M1307 0H1040L409 1012V0H143V1456H409L1042 442V1456H1307V0Z" />
<glyph unicode="O" horiz-adv-x="1413" d="M1315 691Q1315 470 1239 311T1026 66T708 -20Q529 -20 391 65T174 310T96 691V764Q96 985 173 1144T389 1390T706 1476Q887 1476 1024 1390T1238 1145T1315 764V691ZM1047 766Q1047 926 1007 1034T890 1199T706 1255Q599
1255 523 1199T406 1035T365 766V691Q365 532 406 423T524 257T708 200Q816 200 892 256T1007 422T1047 691V766Z" />
<glyph unicode="P" horiz-adv-x="1313" d="M327 532V747H702Q797 747 855 777T941 862T969 985Q969 1052 942 1110T856 1205T702 1241H409V0H143V1456H702Q872 1456 991 1396T1174 1230T1238 987Q1238 846 1175 744T992 587T702 532H327Z" />
<glyph unicode="Q" horiz-adv-x="1413" d="M1308 -103L1136 -256L755 50L920 205L1308 -103ZM1311 691Q1311 470 1235 311T1022 66T703 -20Q525 -20 387 65T170 310T92 691V764Q92 985 169 1144T385 1390T701 1476Q883 1476 1020 1390T1234 1145T1311 764V691ZM1043
766Q1043 926 1003 1034T886 1199T701 1255Q595 1255 519 1199T402 1035T361 766V691Q361 532 402 423T520 257T703 200Q812 200 887 256T1003 422T1043 691V766Z" />
<glyph unicode="R" horiz-adv-x="1291" d="M665 1456Q832 1456 950 1406T1131 1258T1194 1017Q1194 905 1155 822T1042 683T869 595L788 552H326V767H666Q754 767 812 797T898 880T927 1001Q927 1111 864 1176T665 1241H409V0H143V1456H665ZM628 654H909L1252
14V0H966L628 654Z" />
<glyph unicode="S" horiz-adv-x="1245" d="M649 -20Q543 -20 441 8T256 95T123 240T73 447H340Q340 378 363 330T429 250T527 205T649 191Q735 191 791 215T875 281T904 378Q904 435 880 475T791 551T600 625Q498 656 411 696T257 789T155 911T118 1073Q118 1192
184 1283T369 1425T641 1476Q805 1476 923 1417T1106 1256T1170 1030H903Q903 1098 875 1151T788 1233T638 1263Q553 1263 497 1238T413 1170T385 1073Q385 1020 418 980T520 908T689 844Q851 797 958 734T1118 584T1171 380Q1171 256 1107 166T925 28T649 -20Z"
/>
<glyph unicode="T" horiz-adv-x="1252" d="M757 0H492V1456H757V0ZM1209 1241H44V1456H1209V1241Z" />
<glyph unicode="U" horiz-adv-x="1341" d="M1220 1456V488Q1220 321 1148 208T951 38T672 -20Q514 -20 390 37T195 208T124 488V1456H390V488Q390 386 424 322T521 226T672 194Q760 194 822 225T919 321T953 488V1456H1220Z" />
<glyph unicode="V" horiz-adv-x="1329" d="M1021 1456H1316L798 0H599L649 282L1021 1456ZM678 282L730 0H531L15 1456H308L678 282Z" />
<glyph unicode="W" horiz-adv-x="1800" d="M794 1456H951L946 1197L638 0H473L506 291L794 1456ZM543 296L553 0H376L44 1456H309L543 296ZM1498 1456H1764L1432 0H1255L1268 300L1498 1456ZM1304 287L1335 0H1170L866 1197L863 1456H1018L1304 287Z" />
<glyph unicode="X" horiz-adv-x="1297" d="M650 937L946 1456H1254L819 734L1264 0H954L650 529L344 0H35L481 734L45 1456H353L650 937Z" />
<glyph unicode="Y" horiz-adv-x="1255" d="M627 776L953 1456H1247L761 534V0H492V534L6 1456H301L627 776Z" />
<glyph unicode="Z" horiz-adv-x="1237" d="M1170 0H156V214H1170V0ZM259 0H78V166L972 1456H1149V1295L259 0ZM1052 1241H82V1456H1052V1241Z" />
<glyph unicode="[" horiz-adv-x="562" d="M544 1485H385V-131H544V-330H128V1684H544V1485Z" />
<glyph unicode="\" horiz-adv-x="857" d="M14 1456H270L878 -125H621L14 1456Z" />
<glyph unicode="]" horiz-adv-x="562" d="M12 1684H428V-330H12V-131H172V1485H12V1684Z" />
<glyph unicode="^" horiz-adv-x="1140" d="M391 729H180L479 1456H626L580 1219L391 729ZM561 1219L515 1456H662L961 729H749L561 1219Z" />
<glyph unicode="_" horiz-adv-x="919" d="M915 -202H2V0H915V-202Z" />
<glyph unicode="`" horiz-adv-x="643" d="M563 1198H351L80 1501H368L563 1198Z" />
<glyph unicode="a" horiz-adv-x="1104" d="M723 730Q723 812 679 860T542 909Q487 909 447 891T384 840T362 766H106Q106 855 161 931T318 1055T556 1102Q679 1102 774 1061T925 936T980 728V254Q980 175 991 118T1022 17V0H761Q742 40 733 103T723 227V730ZM760
503H594Q466 503 402 455T338 326Q338 264 380 223T500 182Q572 182 625 211T708 281T739 360L818 246Q805 206 777 160T704 73T595 6T449 -20Q344 -20 261 22T130 137T82 303Q82 475 210 567T578 660H760V503Z" />
<glyph unicode="b" horiz-adv-x="1152" d="M657 -20Q521 -20 434 49T298 238T231 511V570Q249 727 297 846T433 1034T655 1102Q795 1102 889 1032T1030 838T1077 552V531Q1077 370 1030 246T889 51T657 -20ZM121 0V1536H377V238L352 0H121ZM592 189Q680 189 729
234T800 356T821 531V552Q821 644 801 722T730 846T590 893Q529 893 485 873T410 815T364 728T342 620V461Q350 385 377 323T457 225T592 189Z" />
<glyph unicode="c" horiz-adv-x="1071" d="M569 -20Q403 -20 293 53T129 250T75 524V557Q75 708 129 831T293 1028T568 1102Q699 1102 798 1051T954 907T1012 689H771Q769 746 744 793T674 868T564 896Q471 896 421 847T351 721T331 557V524Q331 438 350 361T420
235T566 186Q623 186 668 208T741 271T771 364H1012Q1010 256 950 169T791 31T569 -20Z" />
<glyph unicode="d" horiz-adv-x="1156" d="M499 -20Q368 -20 273 51T127 247T76 529V550Q76 714 127 838T273 1032T501 1102Q632 1102 719 1034T857 845T925 566V507Q908 355 858 236T720 49T499 -20ZM564 190Q644 190 695 225T775 320T814 456V616Q808 676 791
727T744 815T670 872T566 893Q482 893 431 847T356 723T332 550V529Q332 435 355 358T429 236T564 190ZM799 0L774 229V1536H1031V0H799Z" />
<glyph unicode="e" horiz-adv-x="1101" d="M604 -20Q441 -20 324 49T143 238T79 503V544Q79 712 143 837T319 1032T574 1102Q730 1102 833 1035T989 848T1041 571V461H200V643H788V663Q786 725 764 778T696 863T573 896Q494 896 442 852T363 729T336 544V503Q336
413 369 341T466 228T619 186Q704 186 771 219T888 316L1021 181Q970 105 867 43T604 -20Z" />
<glyph unicode="f" horiz-adv-x="727" d="M203 0V1183Q203 1364 306 1460T588 1557Q625 1557 660 1552T729 1539L723 1339Q704 1343 681 1345T631 1347Q550 1347 505 1305T460 1183V0H203ZM680 893H40V1082H680V893Z" />
<glyph unicode="g" horiz-adv-x="1163" d="M543 -426Q480 -426 405 -409T259 -352T140 -251L258 -96Q314 -161 383 -193T530 -225Q650 -225 718 -160T786 29V835L811 1082H1043V33Q1043 -114 980 -217T804 -373T543 -426ZM511 -20Q378 -20 281 51T131 247T78 529V550Q78
714 130 838T281 1032T513 1102Q620 1102 694 1063T818 953T895 783T937 566V507Q919 355 870 236T734 49T511 -20ZM576 190Q659 190 711 225T792 320T831 456V616Q825 676 808 727T761 815T685 872T578 893Q494 893 440 847T360 723T334 550V529Q334 435 359 358T438
236T576 190Z" />
<glyph unicode="h" horiz-adv-x="1140" d="M373 0H116V1536H373V0ZM249 578Q250 730 302 848T449 1034T670 1102Q777 1102 856 1062T980 931T1024 691V0H767V693Q767 768 746 811T683 874T581 893Q517 893 470 869T392 802T345 702T329 579L249 578Z" />
<glyph unicode="i" horiz-adv-x="535" d="M267 1499Q335 1499 374 1461T413 1364Q413 1306 374 1268T267 1229Q199 1229 161 1267T122 1364Q122 1422 160 1460T267 1499ZM396 0H139V1082H396V0Z" />
<glyph unicode="j" horiz-adv-x="552" d="M390 1082V-83Q390 -254 303 -345T50 -437Q17 -437 -18 -433T-85 -420V-217Q-63 -221 -40 -223T5 -226Q67 -226 100 -193T133 -83V1082H390ZM261 1193Q193 1193 155 1231T116 1327Q116 1386 154 1424T261 1463Q329 1463
368 1425T407 1327Q407 1270 368 1232T261 1193Z" />
<glyph unicode="k" horiz-adv-x="1077" d="M378 0H121V1536H378V0ZM582 555L322 291L250 500L447 747L742 1082H1050L582 555ZM454 503L619 676L1090 0H793L454 503Z" />
<glyph unicode="l" horiz-adv-x="529" d="M393 0H136V1536H393V0Z" />
<glyph unicode="m" horiz-adv-x="1780" d="M377 0H120V1082H362L377 861V0ZM252 578Q252 730 300 848T445 1034T683 1102Q830 1102 924 1013T1018 721V0H762V696Q762 771 740 814T675 875T576 893Q512 893 467 869T392 802T350 702T336 579L252 578ZM886 610Q886
745 934 857T1076 1035T1308 1102Q1417 1102 1496 1062T1617 932T1660 697V0H1403V698Q1403 776 1381 818T1317 876T1219 893Q1164 893 1124 873T1056 818T1014 735T1000 632L886 610Z" />
<glyph unicode="n" horiz-adv-x="1142" d="M373 0H117V1082H358L373 851V0ZM250 578Q251 736 304 853T455 1036T681 1102Q785 1102 862 1063T981 934T1024 695V0H767V697Q767 771 746 814T684 875T582 893Q521 893 475 869T396 802T347 702T330 579L250 578Z" />
<glyph unicode="o" horiz-adv-x="1162" d="M75 551Q75 709 135 833T307 1029T579 1102Q740 1102 854 1030T1027 833T1087 551V530Q1087 373 1028 249T855 52T581 -20Q421 -20 308 52T135 248T75 530V551ZM331 530Q331 436 357 358T438 233T581 186Q669 186 724
232T804 357T830 530V551Q830 644 805 722T724 848T579 896Q492 896 437 849T357 723T331 551V530Z" />
<glyph unicode="p" horiz-adv-x="1152" d="M656 -20Q554 -20 479 18T353 127T270 291T225 498V568Q243 726 293 846T431 1034T654 1102Q791 1102 885 1033T1027 841T1076 552V531Q1076 373 1028 249T886 52T656 -20ZM121 -416V1082H357L377 874V-416H121ZM586
186Q670 186 721 233T796 358T820 531V552Q820 648 796 725T720 847T584 893Q522 893 478 873T405 817T359 730T336 618V448Q347 375 374 316T452 221T586 186Z" />
<glyph unicode="q" horiz-adv-x="1160" d="M501 -20Q366 -20 271 52T126 248T76 530V551Q76 715 126 839T271 1033T503 1102Q637 1102 725 1034T862 846T930 568V508Q916 394 886 298T804 130T677 20T501 -20ZM566 186Q649 186 701 222T781 320T819 458V617Q813
678 797 728T750 817T675 875T568 896Q484 896 432 850T356 725T332 551V530Q332 436 355 358T431 233T566 186ZM773 -416V865L803 1082H1030V-416H773Z" />
<glyph unicode="r" horiz-adv-x="730" d="M377 0H121V1082H364L377 864V0ZM702 845Q679 849 653 851T601 853Q520 853 466 825T385 743T352 615L295 619Q295 756 331 865T438 1038T617 1102Q638 1102 664 1099T704 1089L702 845Z" />
<glyph unicode="s" horiz-adv-x="1055" d="M528 -20Q379 -20 277 33T122 170T69 341H315Q319 279 350 241T430 185T532 168Q594 168 636 184T699 229T721 296Q721 330 704 357T637 407T491 450Q377 474 290 514T154 617T104 772Q104 861 155 936T301 1056T526
1102Q663 1102 761 1057T913 934T966 757H710Q710 821 664 867T525 914Q469 914 430 896T372 849T353 784Q353 750 372 725T439 680T570 642Q692 617 782 578T922 474T972 308Q972 213 918 139T763 22T528 -20Z" />
<glyph unicode="t" horiz-adv-x="685" d="M627 893H10V1082H627V893ZM437 1347V310Q437 261 451 236T490 201T551 192Q576 192 599 195T635 201V4Q604 -6 564 -13T471 -20Q386 -20 320 10T218 109T181 290V1347H437Z" />
<glyph unicode="u" horiz-adv-x="1141" d="M766 1082H1023V0H781L766 256V1082ZM884 484Q884 339 841 225T707 46T473 -20Q313 -20 214 74T115 383V1082H371V381Q371 308 393 267T454 208T539 190Q638 190 695 228T776 333T801 482L884 484Z" />
<glyph unicode="v" horiz-adv-x="1022" d="M732 1082H998L626 0H461L476 200L732 1082ZM547 198L558 0H394L19 1082H286L547 198Z" />
<glyph unicode="w" horiz-adv-x="1516" d="M661 1082H824L780 807L533 0H390L416 254L661 1082ZM470 252L483 0H321L33 1082H282L470 252ZM1230 1082H1479L1191 0H1029L1048 262L1230 1082ZM1094 262L1122 0H978L729 807L686 1082H851L1094 262Z" />
<glyph unicode="x" horiz-adv-x="1034" d="M517 737L717 1082H997L674 551L1009 0H730L519 362L309 0H28L363 551L41 1082H321L517 737Z" />
<glyph unicode="y" horiz-adv-x="1009" d="M725 1082H998L566 -164Q551 -204 527 -251T464 -340T367 -410T227 -437Q205 -437 185 -435T145 -428T107 -419V-222Q116 -223 130 -224T153 -225Q242 -225 286 -194T356 -89L434 120L725 1082ZM533 287L577 9L400 -26L10
1082H286L533 287Z" />
<glyph unicode="z" horiz-adv-x="1034" d="M964 0H156V206H964V0ZM247 0H79V163L774 1082H944V924L247 0ZM848 875H92V1082H848V875Z" />
<glyph unicode="{" horiz-adv-x="682" d="M652 1452Q552 1418 516 1331T479 1132V928Q479 827 436 745T299 615T54 566V711Q154 711 198 770T242 928V1132Q242 1237 275 1328T386 1489T601 1597L652 1452ZM601 -362Q464 -323 386 -254T275 -93T242 104V308Q242
406 198 465T54 524V670Q205 670 298 622T435 492T479 308V104Q479 -8 515 -94T652 -215L601 -362Z" />
<glyph unicode="|" horiz-adv-x="514" d="M342 -270H174V1456H342V-270Z" />
<glyph unicode="}" horiz-adv-x="682" d="M80 1597Q218 1559 296 1490T406 1329T439 1132V928Q439 828 483 770T628 711V571Q477 571 384 618T246 746T202 928V1132Q202 1244 166 1331T30 1452L80 1597ZM30 -215Q130 -181 166 -95T202 104V308Q202 410 246 490T383
617T628 664V524Q528 524 484 465T439 308V104Q439 -1 407 -92T296 -253T80 -362L30 -215Z" />
<glyph unicode="~" horiz-adv-x="1300" d="M1210 788Q1210 670 1168 579T1052 437T880 385Q797 385 733 418T595 519Q550 561 511 584T428 607Q363 607 326 556T288 421L90 423Q90 543 131 632T247 770T418 819Q501 819 568 785T706 685Q751 642 789 620T870 597Q935
597 975 651T1016 789L1210 788Z" />
<glyph unicode="&#xa0;" horiz-adv-x="510" />
<glyph unicode="&#xa1;" horiz-adv-x="554" d="M144 -367L171 654H388L415 -367H144ZM278 826Q210 826 171 866T132 965Q132 1023 171 1062T278 1101Q346 1101 384 1062T422 965Q422 907 384 867T278 826Z" />
<glyph unicode="&#xa2;" horiz-adv-x="1160" d="M690 1027H493V1318H690V1027ZM690 -245H493V45H690V-245ZM595 -20Q429 -20 319 53T155 250T101 524V557Q101 708 155 831T319 1028T594 1102Q725 1102 824 1051T980 907T1038 689H797Q795 746 770 793T700 868T590
896Q497 896 447 847T377 721T357 557V524Q357 438 376 361T446 235T592 186Q649 186 694 208T767 271T797 364H1038Q1036 256 976 169T817 31T595 -20Z" />
<glyph unicode="&#xa3;" horiz-adv-x="1209" d="M100 0V214H1151V0H100ZM96 591V801H831V591H96ZM534 427Q535 330 498 257T374 138L187 214Q220 223 236 255T259 331T265 415L245 1039Q245 1177 302 1274T462 1424T696 1476Q907 1476 1022 1364T1137 1068H880Q880
1139 854 1181T784 1242T690 1261Q614 1261 562 1205T510 1039L534 427Z" />
<glyph unicode="&#xa4;" horiz-adv-x="1432" d="M719 -20Q596 -20 488 28T299 161T171 361T124 608Q124 741 170 855T298 1054T488 1186T719 1234Q842 1234 950 1187T1140 1054T1268 855T1314 608Q1314 475 1268 361T1140 162T950 28T719 -20ZM228 -26L89 116L291
321L430 180L228 -26ZM719 164Q805 164 880 198T1011 293T1100 435T1132 608Q1132 701 1100 781T1012 922T880 1016T719 1050Q634 1050 559 1017T428 923T339 782T306 608Q306 516 338 435T427 293T559 198T719 164ZM1216 -27L1014 179L1153 321L1355 116L1216
-27ZM291 916L89 1122L228 1264L430 1058L291 916ZM1153 916L1014 1059L1216 1265L1355 1122L1153 916Z" />
<glyph unicode="&#xa5;" horiz-adv-x="1091" d="M974 582H100V740H974V582ZM974 293H100V450H974V293ZM798 1456H1079L665 572H512L478 696L798 1456ZM619 688L580 572H428L12 1456H295L619 688ZM675 0H409V765H675V0Z" />
<glyph unicode="&#xa6;" horiz-adv-x="509" d="M134 -270V524H371V-270H134ZM371 698H134V1456H371V698Z" />
<glyph unicode="&#xa7;" horiz-adv-x="1277" d="M686 264Q795 264 855 314T915 445Q915 497 887 534T790 603T601 671Q453 712 347 763T184 893T127 1100Q127 1214 190 1298T367 1430T637 1477Q875 1477 1011 1367T1148 1048H891Q891 1110 863 1160T778 1240T637
1270Q505 1270 445 1221T384 1102Q384 1048 409 1013T501 950T693 888Q844 848 951 797T1113 667T1169 465Q1169 302 1038 216T686 129V264ZM561 738Q452 738 402 688T351 560Q351 504 376 467T468 400T661 333Q813 292 919 242T1081 112T1137 -95Q1137 -274 998
-370T629 -467Q529 -467 434 -446T261 -377T137 -247T91 -45L348 -44Q348 -108 372 -149T438 -215T529 -250T629 -260Q751 -260 815 -215T880 -97Q880 -47 853 -13T757 52T569 117Q421 157 315 208T151 339T94 540Q94 698 221 787T561 877V738Z" />
<glyph unicode="&#xa8;" horiz-adv-x="888" d="M678 1204Q620 1204 585 1238T549 1324Q549 1374 584 1409T678 1444Q736 1444 772 1409T808 1324Q808 1273 772 1239T678 1204ZM210 1204Q151 1204 116 1238T80 1324Q80 1374 115 1409T210 1444Q268 1444 303 1409T339
1324Q339 1273 304 1239T210 1204Z" />
<glyph unicode="&#xa9;" horiz-adv-x="1607" d="M798 -21Q651 -21 523 36T296 195T143 434T88 729Q88 888 143 1024T296 1261T522 1419T798 1476Q945 1476 1073 1420T1299 1262T1452 1024T1507 729Q1507 570 1452 434T1300 196T1074 36T798 -21ZM784 283Q623 283
529 390T435 670V788Q435 960 529 1067T784 1175Q938 1175 1028 1097T1119 861H966Q966 958 920 1000T784 1042Q720 1042 676 1010T610 920T588 789V670Q588 557 637 487T784 416Q873 416 919 457T965 597H1118Q1118 440 1028 362T784 283ZM798 103Q920 103 1026
150T1214 283T1340 482T1386 729Q1386 862 1341 975T1214 1173T1027 1305T798 1353Q676 1353 569 1306T381 1173T254 975T208 729Q208 597 253 483T380 283T569 151T798 103Z" />
<glyph unicode="&#xaa;" horiz-adv-x="912" d="M585 1202Q585 1264 556 1297T467 1331Q401 1331 364 1305T326 1230L156 1244Q156 1345 241 1411T467 1477Q597 1477 677 1408T757 1201V887Q757 838 763 794T783 706H609Q597 741 591 781T585 862V1202ZM628 1034H482Q394
1034 354 1001T313 923Q313 881 342 858T431 834Q473 834 515 852T586 898T615 950L632 835Q618 803 587 770T507 714T390 692Q270 692 206 753T141 919Q141 1029 225 1089T481 1150H627L628 1034Z" />
<glyph unicode="&#xab;" horiz-adv-x="1003" d="M548 784L339 785V798L624 1188H797L548 784ZM797 390H624L339 779V792L548 793L797 390ZM661 528L452 529V542L737 932H910L661 528ZM910 134H737L452 523V536L661 537L910 134Z" />
<glyph unicode="&#xac;" horiz-adv-x="1140" d="M987 620H153V804H987V620ZM987 374H775V728H987V374Z" />
<glyph unicode="&#xae;" horiz-adv-x="1607" d="M797 -21Q650 -21 522 36T296 195T143 434T88 729Q88 888 143 1024T296 1261T522 1419T797 1476Q944 1476 1072 1420T1299 1262T1452 1024T1508 729Q1508 570 1453 434T1299 196T1073 36T797 -21ZM969 316Q959 342
958 390T956 460V514Q956 585 924 619T812 653L833 757Q989 757 1047 689T1105 515V459Q1105 422 1108 389T1122 332V316H969ZM797 103Q920 103 1026 150T1214 283T1340 482T1386 729Q1386 862 1341 975T1214 1173T1027 1305T797 1353Q675 1353 569 1306T381 1173T254
975T208 729Q208 597 253 483T380 283T568 151T797 103ZM504 316V1166H784Q933 1166 1020 1101T1108 906Q1108 825 1052 771T890 688Q887 688 884 682T877 674Q866 667 861 663T849 656T822 653H607V786H795Q860 787 910 816T961 903Q961 977 922 1006T784 1035H653V316H504Z"
/>
<glyph unicode="&#xaf;" horiz-adv-x="922" d="M791 1292H106V1451H791V1292Z" />
<glyph unicode="&#xb0;" horiz-adv-x="786" d="M395 939Q322 939 262 974T165 1071T128 1206Q128 1280 164 1341T261 1440T395 1477Q467 1477 526 1440T621 1342T657 1206Q657 1132 622 1071T527 975T395 939ZM395 1080Q447 1080 482 1116T517 1206Q517 1261 482
1298T395 1335Q343 1335 306 1298T268 1206Q268 1152 305 1116T395 1080Z" />
<glyph unicode="&#xb1;" horiz-adv-x="1140" d="M1028 702H684V321H457V702H112V914H457V1280H684V914H1028V702ZM997 1H143V209H997V1Z" />
<glyph unicode="&#xb2;" horiz-adv-x="760" d="M691 667H77V796L365 1057Q424 1110 449 1153T475 1222Q475 1264 448 1289T370 1315Q309 1315 280 1280T250 1197H59Q59 1272 96 1333T201 1430T363 1467Q506 1467 585 1403T665 1223Q665 1166 641 1120T571 1028T457
925L325 819H691V667Z" />
<glyph unicode="&#xb3;" horiz-adv-x="760" d="M358 1134Q420 1134 450 1160T481 1229Q481 1262 455 1288T367 1315Q321 1315 289 1296T256 1244H65Q65 1316 106 1365T214 1441T362 1467Q499 1467 585 1410T671 1242Q671 1183 635 1140T536 1073T389 1049H270V1134H358ZM270
1088H389Q482 1088 548 1068T649 1004T685 888Q685 777 593 717T362 656Q288 656 217 680T99 758T53 899H244Q244 862 278 836T372 809Q435 809 464 836T494 904Q494 959 458 981T358 1004H270V1088Z" />
<glyph unicode="&#xb4;" horiz-adv-x="642" d="M276 1501H562L287 1198H80L276 1501Z" />
<glyph unicode="&#xb5;" horiz-adv-x="1141" d="M115 605H332L359 -416H88L115 605ZM766 1082H1023V0H781L766 256V1082ZM884 484Q884 339 841 225T707 46T473 -20Q313 -20 214 74T115 383V1082H371V381Q371 308 393 267T454 208T539 190Q638 190 695 228T776
333T801 482L884 484Z" />
<glyph unicode="&#xb6;" horiz-adv-x="1003" d="M649 0V520H565Q406 520 297 580T130 747T73 988Q73 1122 130 1228T296 1395T565 1456H858V0H649Z" />
<glyph unicode="&#xb7;" horiz-adv-x="591" d="M290 568Q222 568 182 608T142 708Q142 768 182 808T290 849Q359 849 398 809T438 708Q438 649 399 609T290 568Z" />
<glyph unicode="&#xb8;" horiz-adv-x="817" d="M274 5L262 -51Q319 -61 366 -99T413 -224Q413 -328 328 -390T78 -453L71 -307Q108 -307 137 -298T184 -270T202 -219Q202 -175 167 -159T53 -136L84 5H274Z" />
<glyph unicode="&#xb9;" horiz-adv-x="760" d="M518 667H329V1233L132 1186V1335L500 1454H518V667Z" />
<glyph unicode="&#xba;" horiz-adv-x="935" d="M120 1122Q120 1277 213 1377T465 1477Q625 1477 718 1377T811 1122V1044Q811 889 719 790T467 691Q307 691 214 790T120 1044V1122ZM292 1044Q292 954 335 895T467 835Q554 835 596 894T639 1044V1122Q639 1210
596 1270T465 1331Q378 1331 335 1271T292 1122V1044Z" />
<glyph unicode="&#xbb;" horiz-adv-x="1003" d="M339 537L548 536V523L263 134H91L339 537ZM263 932L548 542V529L339 528L91 932H263ZM719 537L928 536V523L643 134H471L719 537ZM643 932L928 542V529L719 528L471 932H643Z" />
<glyph unicode="&#xbc;" horiz-adv-x="1510" d="M521 109L391 183L1102 1321L1232 1247L521 109ZM518 546H329V1112L132 1065V1214L500 1333H518V546ZM1453 163H814L804 287L1167 789H1317L1154 530L988 318H1453V163ZM1359 0H1168V789H1359V0Z" />
<glyph unicode="&#xbd;" horiz-adv-x="1620" d="M511 109L381 183L1092 1321L1222 1247L511 109ZM518 546H329V1112L132 1065V1214L500 1333H518V546ZM1551 0H937V129L1225 390Q1284 443 1309 486T1335 555Q1335 597 1308 622T1230 648Q1169 648 1140 613T1110
530H919Q919 605 956 666T1061 763T1223 800Q1366 800 1445 736T1525 556Q1525 499 1501 453T1431 361T1317 258L1185 152H1551V0Z" />
<glyph unicode="&#xbe;" horiz-adv-x="1608" d="M358 1006Q420 1006 450 1032T481 1101Q481 1134 455 1160T367 1187Q321 1187 289 1168T256 1116H65Q65 1188 106 1237T214 1313T362 1339Q499 1339 585 1282T671 1114Q671 1055 635 1012T536 945T389 921H270V1006H358ZM270
960H389Q482 960 548 940T649 876T685 760Q685 649 593 589T362 528Q288 528 217 552T99 630T53 771H244Q244 734 278 708T372 681Q435 681 464 708T494 776Q494 831 458 853T358 876H270V960ZM619 109L489 183L1200 1321L1330 1247L619 109ZM1551 163H912L902
287L1265 789H1415L1252 530L1086 318H1551V163ZM1457 0H1266V789H1457V0Z" />
<glyph unicode="&#xbf;" horiz-adv-x="1004" d="M505 -386Q299 -386 184 -285T69 2Q69 91 105 162T198 296T317 418Q354 452 373 487T399 564T407 655H642Q641 563 627 500T579 386T486 276Q443 233 406 194T348 110T326 5Q326 -84 372 -128T502 -173Q576 -173
632 -130T689 8H946Q945 -122 886 -210T728 -342T505 -386ZM524 828Q456 828 417 868T378 966Q378 1024 417 1063T524 1102Q591 1102 629 1063T668 966Q668 908 630 868T524 828Z" />
<glyph unicode="&#xc0;" horiz-adv-x="1366" d="M295 0H14L561 1456H738L720 1239L295 0ZM646 1239L626 1456H804L1353 0H1072L646 1239ZM1056 326H266V542H1056V326ZM822 1572H610L339 1875H627L822 1572Z" />
<glyph unicode="&#xc1;" horiz-adv-x="1366" d="M295 0H14L561 1456H738L720 1239L295 0ZM646 1239L626 1456H804L1353 0H1072L646 1239ZM1056 326H266V542H1056V326ZM775 1875H1061L786 1572H579L775 1875Z" />
<glyph unicode="&#xc2;" horiz-adv-x="1366" d="M295 0H14L561 1456H738L720 1239L295 0ZM646 1239L626 1456H804L1353 0H1072L646 1239ZM1056 326H266V542H1056V326ZM1045 1598V1586H840L687 1739L535 1586H333V1600L613 1875H762L1045 1598Z" />
<glyph unicode="&#xc3;" horiz-adv-x="1366" d="M295 0H14L561 1456H738L720 1239L295 0ZM646 1239L626 1456H804L1353 0H1072L646 1239ZM1056 326H266V542H1056V326ZM472 1605L318 1614Q318 1686 347 1745T426 1839T541 1875Q581 1875 615 1862T679 1831T742
1800T813 1786Q850 1786 876 1813T903 1887L1056 1875Q1056 1802 1027 1744T948 1651T833 1617Q784 1617 750 1630T688 1661T631 1692T561 1706Q523 1706 498 1679T472 1605Z" />
<glyph unicode="&#xc4;" horiz-adv-x="1366" d="M295 0H14L561 1456H738L720 1239L295 0ZM646 1239L626 1456H804L1353 0H1072L646 1239ZM1056 326H266V542H1056V326ZM921 1567Q863 1567 828 1601T792 1687Q792 1737 827 1772T921 1807Q979 1807 1015 1772T1051
1687Q1051 1636 1015 1602T921 1567ZM453 1567Q394 1567 359 1601T323 1687Q323 1737 358 1772T453 1807Q511 1807 546 1772T582 1687Q582 1636 547 1602T453 1567Z" />
<glyph unicode="&#xc5;" horiz-adv-x="1366" d="M295 0H14L561 1456H738L720 1239L295 0ZM646 1239L626 1456H804L1353 0H1072L646 1239ZM1056 326H266V542H1056V326ZM687 1571Q592 1571 529 1629T466 1773Q466 1858 529 1918T687 1979Q781 1979 844 1919T907
1773Q907 1688 844 1630T687 1571ZM687 1673Q732 1673 760 1703T788 1773Q788 1814 760 1845T687 1876Q641 1876 614 1845T586 1773Q586 1733 613 1703T687 1673Z" />
<glyph unicode="&#xc6;" horiz-adv-x="1923" d="M300 0H-4L813 1456H976L986 1301L300 0ZM1106 340H356V563H1106V340ZM1871 0H1139V208H1871V0ZM1234 0H977L916 1456H1173L1234 0ZM1729 647H1098V855H1729V647ZM1810 1248H1078V1456H1810V1248Z" />
<glyph unicode="&#xc7;" horiz-adv-x="1338" d="M1263 478Q1252 334 1183 221T990 44T688 -20Q507 -20 374 64T169 305T97 672V783Q97 995 170 1150T379 1391T696 1476Q873 1476 994 1412T1183 1233T1264 971H998Q984 1108 918 1183T696 1259Q587 1259 514 1205T403
1046T366 785V672Q366 524 399 418T503 254T688 197Q792 197 856 229T953 323T997 478H1263ZM782 5L770 -51Q827 -61 874 -99T921 -224Q921 -328 836 -390T586 -453L579 -307Q616 -307 645 -298T692 -270T710 -219Q710 -175 675 -159T561 -136L592 5H782Z" />
<glyph unicode="&#xc8;" horiz-adv-x="1156" d="M1102 0H333V214H1102V0ZM409 0H143V1456H409V0ZM1002 645H333V855H1002V645ZM1098 1241H333V1456H1098V1241ZM747 1572H535L264 1875H552L747 1572Z" />
<glyph unicode="&#xc9;" horiz-adv-x="1156" d="M1102 0H333V214H1102V0ZM409 0H143V1456H409V0ZM1002 645H333V855H1002V645ZM1098 1241H333V1456H1098V1241ZM700 1875H986L711 1572H504L700 1875Z" />
<glyph unicode="&#xca;" horiz-adv-x="1156" d="M1102 0H333V214H1102V0ZM409 0H143V1456H409V0ZM1002 645H333V855H1002V645ZM1098 1241H333V1456H1098V1241ZM970 1598V1586H765L612 1739L460 1586H258V1600L538 1875H687L970 1598Z" />
<glyph unicode="&#xcb;" horiz-adv-x="1156" d="M1102 0H333V214H1102V0ZM409 0H143V1456H409V0ZM1002 645H333V855H1002V645ZM1098 1241H333V1456H1098V1241ZM846 1567Q788 1567 753 1601T717 1687Q717 1737 752 1772T846 1807Q904 1807 940 1772T976 1687Q976
1636 940 1602T846 1567ZM378 1567Q319 1567 284 1601T248 1687Q248 1737 283 1772T378 1807Q436 1807 471 1772T507 1687Q507 1636 472 1602T378 1567Z" />
<glyph unicode="&#xcc;" horiz-adv-x="585" d="M426 0H160V1456H426V0ZM427 1572H215L-56 1875H232L427 1572Z" />
<glyph unicode="&#xcd;" horiz-adv-x="585" d="M426 0H160V1456H426V0ZM380 1875H666L391 1572H184L380 1875Z" />
<glyph unicode="&#xce;" horiz-adv-x="585" d="M426 0H160V1456H426V0ZM651 1598V1586H446L293 1739L141 1586H-61V1600L219 1875H368L651 1598Z" />
<glyph unicode="&#xcf;" horiz-adv-x="585" d="M426 0H160V1456H426V0ZM526 1567Q468 1567 433 1601T397 1687Q397 1737 432 1772T526 1807Q584 1807 620 1772T656 1687Q656 1636 620 1602T526 1567ZM58 1567Q-1 1567 -36 1601T-72 1687Q-72 1737 -37 1772T58
1807Q116 1807 151 1772T187 1687Q187 1636 152 1602T58 1567Z" />
<glyph unicode="&#xd0;" horiz-adv-x="1336" d="M669 649H-11V822H669V649ZM260 0V214H571Q702 214 790 271T924 435T969 692V766Q969 920 924 1025T792 1186T579 1241H254V1456H579Q774 1456 922 1370T1153 1129T1237 764V692Q1237 483 1154 328T921 86T571 0H260ZM409
0H143V1456H409V0Z" />
<glyph unicode="&#xd1;" horiz-adv-x="1451" d="M1307 0H1040L409 1012V0H143V1456H409L1042 442V1456H1307V0ZM510 1605L356 1614Q356 1686 385 1745T464 1839T579 1875Q619 1875 653 1862T717 1831T780 1800T851 1786Q888 1786 914 1813T941 1887L1094 1875Q1094
1802 1065 1744T986 1651T871 1617Q822 1617 788 1630T726 1661T669 1692T599 1706Q561 1706 536 1679T510 1605Z" />
<glyph unicode="&#xd2;" horiz-adv-x="1413" d="M1315 691Q1315 470 1239 311T1026 66T708 -20Q529 -20 391 65T174 310T96 691V764Q96 985 173 1144T389 1390T706 1476Q887 1476 1024 1390T1238 1145T1315 764V691ZM1047 766Q1047 926 1007 1034T890 1199T706
1255Q599 1255 523 1199T406 1035T365 766V691Q365 532 406 423T524 257T708 200Q816 200 892 256T1007 422T1047 691V766ZM841 1572H629L358 1875H646L841 1572Z" />
<glyph unicode="&#xd3;" horiz-adv-x="1413" d="M1315 691Q1315 470 1239 311T1026 66T708 -20Q529 -20 391 65T174 310T96 691V764Q96 985 173 1144T389 1390T706 1476Q887 1476 1024 1390T1238 1145T1315 764V691ZM1047 766Q1047 926 1007 1034T890 1199T706
1255Q599 1255 523 1199T406 1035T365 766V691Q365 532 406 423T524 257T708 200Q816 200 892 256T1007 422T1047 691V766ZM794 1875H1080L805 1572H598L794 1875Z" />
<glyph unicode="&#xd4;" horiz-adv-x="1413" d="M1315 691Q1315 470 1239 311T1026 66T708 -20Q529 -20 391 65T174 310T96 691V764Q96 985 173 1144T389 1390T706 1476Q887 1476 1024 1390T1238 1145T1315 764V691ZM1047 766Q1047 926 1007 1034T890 1199T706
1255Q599 1255 523 1199T406 1035T365 766V691Q365 532 406 423T524 257T708 200Q816 200 892 256T1007 422T1047 691V766ZM1065 1598V1586H860L707 1739L555 1586H353V1600L633 1875H782L1065 1598Z" />
<glyph unicode="&#xd5;" horiz-adv-x="1413" d="M1315 691Q1315 470 1239 311T1026 66T708 -20Q529 -20 391 65T174 310T96 691V764Q96 985 173 1144T389 1390T706 1476Q887 1476 1024 1390T1238 1145T1315 764V691ZM1047 766Q1047 926 1007 1034T890 1199T706
1255Q599 1255 523 1199T406 1035T365 766V691Q365 532 406 423T524 257T708 200Q816 200 892 256T1007 422T1047 691V766ZM491 1605L337 1614Q337 1686 366 1745T445 1839T560 1875Q600 1875 634 1862T698 1831T761 1800T832 1786Q869 1786 895 1813T922 1887L1075
1875Q1075 1802 1046 1744T967 1651T852 1617Q803 1617 769 1630T707 1661T650 1692T580 1706Q542 1706 517 1679T491 1605Z" />
<glyph unicode="&#xd6;" horiz-adv-x="1413" d="M1315 691Q1315 470 1239 311T1026 66T708 -20Q529 -20 391 65T174 310T96 691V764Q96 985 173 1144T389 1390T706 1476Q887 1476 1024 1390T1238 1145T1315 764V691ZM1047 766Q1047 926 1007 1034T890 1199T706
1255Q599 1255 523 1199T406 1035T365 766V691Q365 532 406 423T524 257T708 200Q816 200 892 256T1007 422T1047 691V766ZM940 1567Q882 1567 847 1601T811 1687Q811 1737 846 1772T940 1807Q998 1807 1034 1772T1070 1687Q1070 1636 1034 1602T940 1567ZM472
1567Q413 1567 378 1601T342 1687Q342 1737 377 1772T472 1807Q530 1807 565 1772T601 1687Q601 1636 566 1602T472 1567Z" />
<glyph unicode="&#xd7;" horiz-adv-x="1140" d="M104 360L883 1154L1037 1000L258 206L104 360ZM104 1000L258 1154L1037 360L883 206L104 1000Z" />
<glyph unicode="&#xd8;" horiz-adv-x="1411" d="M327 -95H153L1124 1518H1296L327 -95ZM1320 691Q1320 470 1244 311T1031 66T712 -20Q534 -20 396 65T179 310T101 691V764Q101 985 178 1144T394 1390T710 1476Q892 1476 1029 1390T1243 1145T1320 764V691ZM1052
766Q1052 926 1012 1034T895 1199T710 1255Q604 1255 528 1199T411 1035T370 766V691Q370 532 411 423T529 257T712 200Q821 200 897 256T1012 422T1052 691V766Z" />
<glyph unicode="&#xd9;" horiz-adv-x="1341" d="M1220 1456V488Q1220 321 1148 208T951 38T672 -20Q514 -20 390 37T195 208T124 488V1456H390V488Q390 386 424 322T521 226T672 194Q760 194 822 225T919 321T953 488V1456H1220ZM806 1572H594L323 1875H611L806 1572Z" />
<glyph unicode="&#xda;" horiz-adv-x="1341" d="M1220 1456V488Q1220 321 1148 208T951 38T672 -20Q514 -20 390 37T195 208T124 488V1456H390V488Q390 386 424 322T521 226T672 194Q760 194 822 225T919 321T953 488V1456H1220ZM759 1875H1045L770 1572H563L759 1875Z" />
<glyph unicode="&#xdb;" horiz-adv-x="1341" d="M1220 1456V488Q1220 321 1148 208T951 38T672 -20Q514 -20 390 37T195 208T124 488V1456H390V488Q390 386 424 322T521 226T672 194Q760 194 822 225T919 321T953 488V1456H1220ZM1029 1598V1586H824L671 1739L519
1586H317V1600L597 1875H746L1029 1598Z" />
<glyph unicode="&#xdc;" horiz-adv-x="1341" d="M1220 1456V488Q1220 321 1148 208T951 38T672 -20Q514 -20 390 37T195 208T124 488V1456H390V488Q390 386 424 322T521 226T672 194Q760 194 822 225T919 321T953 488V1456H1220ZM904 1567Q846 1567 811 1601T775
1687Q775 1737 810 1772T904 1807Q962 1807 998 1772T1034 1687Q1034 1636 998 1602T904 1567ZM436 1567Q377 1567 342 1601T306 1687Q306 1737 341 1772T436 1807Q494 1807 529 1772T565 1687Q565 1636 530 1602T436 1567Z" />
<glyph unicode="&#xdd;" horiz-adv-x="1255" d="M627 776L953 1456H1247L761 534V0H492V534L6 1456H301L627 776ZM715 1875H1001L726 1572H519L715 1875Z" />
<glyph unicode="&#xde;" horiz-adv-x="1234" d="M401 1456V0H144V1456H401ZM640 1181Q809 1181 925 1124T1101 967T1161 738Q1161 610 1101 510T925 353T640 296H360V502H640Q735 502 793 535T877 622T904 736Q904 797 878 852T793 941T640 975H400L244 1181H640Z" />
<glyph unicode="&#xdf;" horiz-adv-x="1268" d="M392 0H137V1105Q137 1329 259 1443T585 1558Q699 1558 791 1519T937 1399T992 1199Q992 1123 975 1076T935 993T896 921T878 827Q878 782 910 743T989 665T1083 580T1162 476T1194 343Q1194 225 1143 144T997 22T769
-20Q716 -20 660 -12T557 10T483 42L533 246Q566 228 626 207T758 186Q819 186 859 205T918 258T938 336Q938 388 907 428T828 505T733 585T654 684T622 819Q622 884 640 928T681 1008T723 1085T742 1184Q742 1237 720 1274T661 1332T574 1352Q489 1352 441 1295T392
1102V0Z" />
<glyph unicode="&#xe0;" horiz-adv-x="1104" d="M723 730Q723 812 679 860T542 909Q487 909 447 891T384 840T362 766H106Q106 855 161 931T318 1055T556 1102Q679 1102 774 1061T925 936T980 728V254Q980 175 991 118T1022 17V0H761Q742 40 733 103T723 227V730ZM760
503H594Q466 503 402 455T338 326Q338 264 380 223T500 182Q572 182 625 211T708 281T739 360L818 246Q805 206 777 160T704 73T595 6T449 -20Q344 -20 261 22T130 137T82 303Q82 475 210 567T578 660H760V503ZM687 1198H475L204 1501H492L687 1198Z" />
<glyph unicode="&#xe1;" horiz-adv-x="1104" d="M723 730Q723 812 679 860T542 909Q487 909 447 891T384 840T362 766H106Q106 855 161 931T318 1055T556 1102Q679 1102 774 1061T925 936T980 728V254Q980 175 991 118T1022 17V0H761Q742 40 733 103T723 227V730ZM760
503H594Q466 503 402 455T338 326Q338 264 380 223T500 182Q572 182 625 211T708 281T739 360L818 246Q805 206 777 160T704 73T595 6T449 -20Q344 -20 261 22T130 137T82 303Q82 475 210 567T578 660H760V503ZM640 1501H926L651 1198H444L640 1501Z" />
<glyph unicode="&#xe2;" horiz-adv-x="1104" d="M723 730Q723 812 679 860T542 909Q487 909 447 891T384 840T362 766H106Q106 855 161 931T318 1055T556 1102Q679 1102 774 1061T925 936T980 728V254Q980 175 991 118T1022 17V0H761Q742 40 733 103T723 227V730ZM760
503H594Q466 503 402 455T338 326Q338 264 380 223T500 182Q572 182 625 211T708 281T739 360L818 246Q805 206 777 160T704 73T595 6T449 -20Q344 -20 261 22T130 137T82 303Q82 475 210 567T578 660H760V503ZM910 1224V1212H705L552 1365L400 1212H198V1226L478
1501H627L910 1224Z" />
<glyph unicode="&#xe3;" horiz-adv-x="1104" d="M723 730Q723 812 679 860T542 909Q487 909 447 891T384 840T362 766H106Q106 855 161 931T318 1055T556 1102Q679 1102 774 1061T925 936T980 728V254Q980 175 991 118T1022 17V0H761Q742 40 733 103T723 227V730ZM760
503H594Q466 503 402 455T338 326Q338 264 380 223T500 182Q572 182 625 211T708 281T739 360L818 246Q805 206 777 160T704 73T595 6T449 -20Q344 -20 261 22T130 137T82 303Q82 475 210 567T578 660H760V503ZM337 1231L183 1240Q183 1312 212 1371T291 1465T406
1501Q446 1501 480 1488T544 1457T607 1426T678 1412Q715 1412 741 1439T768 1513L921 1501Q921 1428 892 1370T813 1277T698 1243Q649 1243 615 1256T553 1287T496 1318T426 1332Q388 1332 363 1305T337 1231Z" />
<glyph unicode="&#xe4;" horiz-adv-x="1104" d="M723 730Q723 812 679 860T542 909Q487 909 447 891T384 840T362 766H106Q106 855 161 931T318 1055T556 1102Q679 1102 774 1061T925 936T980 728V254Q980 175 991 118T1022 17V0H761Q742 40 733 103T723 227V730ZM760
503H594Q466 503 402 455T338 326Q338 264 380 223T500 182Q572 182 625 211T708 281T739 360L818 246Q805 206 777 160T704 73T595 6T449 -20Q344 -20 261 22T130 137T82 303Q82 475 210 567T578 660H760V503ZM785 1193Q727 1193 692 1227T656 1313Q656 1363 691
1398T785 1433Q843 1433 879 1398T915 1313Q915 1262 879 1228T785 1193ZM317 1193Q258 1193 223 1227T187 1313Q187 1363 222 1398T317 1433Q375 1433 410 1398T446 1313Q446 1262 411 1228T317 1193Z" />
<glyph unicode="&#xe5;" horiz-adv-x="1104" d="M723 730Q723 812 679 860T542 909Q487 909 447 891T384 840T362 766H106Q106 855 161 931T318 1055T556 1102Q679 1102 774 1061T925 936T980 728V254Q980 175 991 118T1022 17V0H761Q742 40 733 103T723 227V730ZM760
503H594Q466 503 402 455T338 326Q338 264 380 223T500 182Q572 182 625 211T708 281T739 360L818 246Q805 206 777 160T704 73T595 6T449 -20Q344 -20 261 22T130 137T82 303Q82 475 210 567T578 660H760V503ZM552 1197Q457 1197 394 1255T331 1399Q331 1484 394
1544T552 1605Q646 1605 709 1545T772 1399Q772 1314 709 1256T552 1197ZM552 1299Q597 1299 625 1329T653 1399Q653 1440 625 1471T552 1502Q506 1502 479 1471T451 1399Q451 1359 478 1329T552 1299Z" />
<glyph unicode="&#xe6;" horiz-adv-x="1730" d="M1252 -21Q1086 -21 971 46T797 232T738 503V564Q738 722 796 844T963 1034T1221 1102Q1436 1102 1554 970T1672 613V466H852V643H1419V672Q1419 736 1399 786T1335 866T1221 896Q1139 896 1087 852T1009 733T984
564V503Q984 415 1013 343T1106 229T1272 186Q1382 186 1450 214T1574 273L1647 101Q1617 77 1562 49T1428 0T1252 -21ZM455 -21Q269 -21 170 70T70 314Q70 472 192 558T551 645H776L777 473H553Q478 473 428 450T353 390T327 310Q327 250 370 211T505 172Q551
172 599 189T688 232T754 289T779 346L902 193Q876 145 818 96T670 13T455 -21ZM733 183V711Q733 796 688 846T558 896Q465 896 412 853T358 750L103 769Q103 866 159 941T319 1059T560 1102Q750 1102 866 1004T982 709V218L733 183Z" />
<glyph unicode="&#xe7;" horiz-adv-x="1071" d="M569 -20Q403 -20 293 53T129 250T75 524V557Q75 708 129 831T293 1028T568 1102Q699 1102 798 1051T954 907T1012 689H771Q769 746 744 793T674 868T564 896Q471 896 421 847T351 721T331 557V524Q331 438 350
361T420 235T566 186Q623 186 668 208T741 271T771 364H1012Q1010 256 950 169T791 31T569 -20ZM608 5L596 -51Q653 -61 700 -99T747 -224Q747 -328 662 -390T412 -453L405 -307Q442 -307 471 -298T518 -270T536 -219Q536 -175 501 -159T387 -136L418 5H608Z" />
<glyph unicode="&#xe8;" horiz-adv-x="1101" d="M604 -20Q441 -20 324 49T143 238T79 503V544Q79 712 143 837T319 1032T574 1102Q730 1102 833 1035T989 848T1041 571V461H200V643H788V663Q786 725 764 778T696 863T573 896Q494 896 442 852T363 729T336 544V503Q336
413 369 341T466 228T619 186Q704 186 771 219T888 316L1021 181Q970 105 867 43T604 -20ZM710 1198H498L227 1501H515L710 1198Z" />
<glyph unicode="&#xe9;" horiz-adv-x="1101" d="M604 -20Q441 -20 324 49T143 238T79 503V544Q79 712 143 837T319 1032T574 1102Q730 1102 833 1035T989 848T1041 571V461H200V643H788V663Q786 725 764 778T696 863T573 896Q494 896 442 852T363 729T336 544V503Q336
413 369 341T466 228T619 186Q704 186 771 219T888 316L1021 181Q970 105 867 43T604 -20ZM663 1501H949L674 1198H467L663 1501Z" />
<glyph unicode="&#xea;" horiz-adv-x="1101" d="M604 -20Q441 -20 324 49T143 238T79 503V544Q79 712 143 837T319 1032T574 1102Q730 1102 833 1035T989 848T1041 571V461H200V643H788V663Q786 725 764 778T696 863T573 896Q494 896 442 852T363 729T336 544V503Q336
413 369 341T466 228T619 186Q704 186 771 219T888 316L1021 181Q970 105 867 43T604 -20ZM933 1224V1212H728L575 1365L423 1212H221V1226L501 1501H650L933 1224Z" />
<glyph unicode="&#xeb;" horiz-adv-x="1101" d="M604 -20Q441 -20 324 49T143 238T79 503V544Q79 712 143 837T319 1032T574 1102Q730 1102 833 1035T989 848T1041 571V461H200V643H788V663Q786 725 764 778T696 863T573 896Q494 896 442 852T363 729T336 544V503Q336
413 369 341T466 228T619 186Q704 186 771 219T888 316L1021 181Q970 105 867 43T604 -20ZM809 1193Q751 1193 716 1227T680 1313Q680 1363 715 1398T809 1433Q867 1433 903 1398T939 1313Q939 1262 903 1228T809 1193ZM341 1193Q282 1193 247 1227T211 1313Q211
1363 246 1398T341 1433Q399 1433 434 1398T470 1313Q470 1262 435 1228T341 1193Z" />
<glyph unicode="&#xec;" horiz-adv-x="544" d="M398 0H141V1082H398V0ZM407 1198H195L-76 1501H212L407 1198Z" />
<glyph unicode="&#xed;" horiz-adv-x="544" d="M398 0H141V1082H398V0ZM360 1501H646L371 1198H164L360 1501Z" />
<glyph unicode="&#xee;" horiz-adv-x="544" d="M398 0H141V1082H398V0ZM630 1224V1212H425L272 1365L120 1212H-82V1226L198 1501H347L630 1224Z" />
<glyph unicode="&#xef;" horiz-adv-x="544" d="M398 0H141V1082H398V0ZM506 1193Q448 1193 413 1227T377 1313Q377 1363 412 1398T506 1433Q564 1433 600 1398T636 1313Q636 1262 600 1228T506 1193ZM38 1193Q-21 1193 -56 1227T-92 1313Q-92 1363 -57 1398T38
1433Q96 1433 131 1398T167 1313Q167 1262 132 1228T38 1193Z" />
<glyph unicode="&#xf0;" horiz-adv-x="1186" d="M320 1580Q548 1532 722 1406T995 1086T1094 645V563Q1094 391 1029 259T851 54T592 -20Q445 -20 334 45T161 221T98 468Q98 619 153 732T309 907T549 970Q662 970 752 919T896 783T956 597L864 598Q864 626 848
656T801 713T721 756T607 773Q525 773 469 736T384 631T354 468Q354 395 382 331T465 227T596 187Q674 187 727 233T809 361T837 544V647Q837 810 789 933T657 1144T466 1289T240 1377L320 1580ZM432 1039L355 1149L913 1512L988 1402L432 1039Z" />
<glyph unicode="&#xf1;" horiz-adv-x="1142" d="M373 0H117V1082H358L373 851V0ZM250 578Q251 736 304 853T455 1036T681 1102Q785 1102 862 1063T981 934T1024 695V0H767V697Q767 771 746 814T684 875T582 893Q521 893 475 869T396 802T347 702T330 579L250 578ZM356
1231L202 1240Q202 1312 231 1371T310 1465T425 1501Q465 1501 499 1488T563 1457T626 1426T697 1412Q734 1412 760 1439T787 1513L940 1501Q940 1428 911 1370T832 1277T717 1243Q668 1243 634 1256T572 1287T515 1318T445 1332Q407 1332 382 1305T356 1231Z"
/>
<glyph unicode="&#xf2;" horiz-adv-x="1162" d="M75 551Q75 709 135 833T307 1029T579 1102Q740 1102 854 1030T1027 833T1087 551V530Q1087 373 1028 249T855 52T581 -20Q421 -20 308 52T135 248T75 530V551ZM331 530Q331 436 357 358T438 233T581 186Q669 186
724 232T804 357T830 530V551Q830 644 805 722T724 848T579 896Q492 896 437 849T357 723T331 551V530ZM716 1198H504L233 1501H521L716 1198Z" />
<glyph unicode="&#xf3;" horiz-adv-x="1162" d="M75 551Q75 709 135 833T307 1029T579 1102Q740 1102 854 1030T1027 833T1087 551V530Q1087 373 1028 249T855 52T581 -20Q421 -20 308 52T135 248T75 530V551ZM331 530Q331 436 357 358T438 233T581 186Q669 186
724 232T804 357T830 530V551Q830 644 805 722T724 848T579 896Q492 896 437 849T357 723T331 551V530ZM669 1501H955L680 1198H473L669 1501Z" />
<glyph unicode="&#xf4;" horiz-adv-x="1162" d="M75 551Q75 709 135 833T307 1029T579 1102Q740 1102 854 1030T1027 833T1087 551V530Q1087 373 1028 249T855 52T581 -20Q421 -20 308 52T135 248T75 530V551ZM331 530Q331 436 357 358T438 233T581 186Q669 186
724 232T804 357T830 530V551Q830 644 805 722T724 848T579 896Q492 896 437 849T357 723T331 551V530ZM939 1224V1212H734L581 1365L429 1212H227V1226L507 1501H656L939 1224Z" />
<glyph unicode="&#xf5;" horiz-adv-x="1162" d="M75 551Q75 709 135 833T307 1029T579 1102Q740 1102 854 1030T1027 833T1087 551V530Q1087 373 1028 249T855 52T581 -20Q421 -20 308 52T135 248T75 530V551ZM331 530Q331 436 357 358T438 233T581 186Q669 186
724 232T804 357T830 530V551Q830 644 805 722T724 848T579 896Q492 896 437 849T357 723T331 551V530ZM366 1231L212 1240Q212 1312 241 1371T320 1465T435 1501Q475 1501 509 1488T573 1457T636 1426T707 1412Q744 1412 770 1439T797 1513L950 1501Q950 1428
921 1370T842 1277T727 1243Q678 1243 644 1256T582 1287T525 1318T455 1332Q417 1332 392 1305T366 1231Z" />
<glyph unicode="&#xf6;" horiz-adv-x="1162" d="M75 551Q75 709 135 833T307 1029T579 1102Q740 1102 854 1030T1027 833T1087 551V530Q1087 373 1028 249T855 52T581 -20Q421 -20 308 52T135 248T75 530V551ZM331 530Q331 436 357 358T438 233T581 186Q669 186
724 232T804 357T830 530V551Q830 644 805 722T724 848T579 896Q492 896 437 849T357 723T331 551V530ZM814 1193Q756 1193 721 1227T685 1313Q685 1363 720 1398T814 1433Q872 1433 908 1398T944 1313Q944 1262 908 1228T814 1193ZM346 1193Q287 1193 252 1227T216
1313Q216 1363 251 1398T346 1433Q404 1433 439 1398T475 1313Q475 1262 440 1228T346 1193Z" />
<glyph unicode="&#xf7;" horiz-adv-x="1140" d="M61 580V796H1079V580H61ZM572 142Q503 142 464 181T425 279Q425 339 464 378T572 417Q641 417 681 378T721 279Q721 220 681 181T572 142ZM572 955Q503 955 464 994T425 1092Q425 1153 464 1192T572 1232Q641 1232
681 1193T721 1092Q721 1033 681 994T572 955Z" />
<glyph unicode="&#xf8;" horiz-adv-x="1158" d="M328 -140H179L842 1214H991L328 -140ZM75 551Q75 709 135 833T307 1029T579 1102Q740 1102 854 1030T1027 833T1087 551V530Q1087 373 1028 249T855 52T581 -20Q421 -20 308 52T135 248T75 530V551ZM331 530Q331
436 357 358T438 233T581 186Q669 186 724 232T804 357T830 530V551Q830 644 805 722T724 848T579 896Q492 896 437 849T357 723T331 551V530Z" />
<glyph unicode="&#xf9;" horiz-adv-x="1141" d="M766 1082H1023V0H781L766 256V1082ZM884 484Q884 339 841 225T707 46T473 -20Q313 -20 214 74T115 383V1082H371V381Q371 308 393 267T454 208T539 190Q638 190 695 228T776 333T801 482L884 484ZM705 1198H493L222
1501H510L705 1198Z" />
<glyph unicode="&#xfa;" horiz-adv-x="1141" d="M766 1082H1023V0H781L766 256V1082ZM884 484Q884 339 841 225T707 46T473 -20Q313 -20 214 74T115 383V1082H371V381Q371 308 393 267T454 208T539 190Q638 190 695 228T776 333T801 482L884 484ZM658 1501H944L669
1198H462L658 1501Z" />
<glyph unicode="&#xfb;" horiz-adv-x="1141" d="M766 1082H1023V0H781L766 256V1082ZM884 484Q884 339 841 225T707 46T473 -20Q313 -20 214 74T115 383V1082H371V381Q371 308 393 267T454 208T539 190Q638 190 695 228T776 333T801 482L884 484ZM929 1224V1212H724L571
1365L419 1212H217V1226L497 1501H646L929 1224Z" />
<glyph unicode="&#xfc;" horiz-adv-x="1141" d="M766 1082H1023V0H781L766 256V1082ZM884 484Q884 339 841 225T707 46T473 -20Q313 -20 214 74T115 383V1082H371V381Q371 308 393 267T454 208T539 190Q638 190 695 228T776 333T801 482L884 484ZM804 1193Q746
1193 711 1227T675 1313Q675 1363 710 1398T804 1433Q862 1433 898 1398T934 1313Q934 1262 898 1228T804 1193ZM336 1193Q277 1193 242 1227T206 1313Q206 1363 241 1398T336 1433Q394 1433 429 1398T465 1313Q465 1262 430 1228T336 1193Z" />
<glyph unicode="&#xfd;" horiz-adv-x="1009" d="M725 1082H998L566 -164Q551 -204 527 -251T464 -340T367 -410T227 -437Q205 -437 185 -435T145 -428T107 -419V-222Q116 -223 130 -224T153 -225Q242 -225 286 -194T356 -89L434 120L725 1082ZM533 287L577 9L400
-26L10 1082H286L533 287ZM592 1501H878L603 1198H396L592 1501Z" />
<glyph unicode="&#xfe;" horiz-adv-x="1169" d="M661 -20Q559 -20 484 18T357 127T275 291T230 498V568Q248 726 297 846T435 1034T658 1102Q795 1102 889 1033T1032 841T1081 552V531Q1081 373 1033 249T890 52T661 -20ZM125 -416V1536H382V-416H125ZM591 186Q675
186 726 233T800 358T824 531V552Q824 648 800 725T725 847T589 893Q528 893 484 873T409 817T363 730T341 618V448Q351 375 378 316T457 221T591 186Z" />
<glyph unicode="&#xff;" horiz-adv-x="1009" d="M725 1082H998L566 -164Q551 -204 527 -251T464 -340T367 -410T227 -437Q205 -437 185 -435T145 -428T107 -419V-222Q116 -223 130 -224T153 -225Q242 -225 286 -194T356 -89L434 120L725 1082ZM533 287L577 9L400
-26L10 1082H286L533 287ZM738 1449Q680 1449 645 1483T609 1569Q609 1619 644 1654T738 1689Q796 1689 832 1654T868 1569Q868 1518 832 1484T738 1449ZM270 1449Q211 1449 176 1483T140 1569Q140 1619 175 1654T270 1689Q328 1689 363 1654T399 1569Q399 1518
364 1484T270 1449Z" />
<glyph unicode="&#x2013;" horiz-adv-x="1311" d="M1167 614H143V822H1167V614Z" />
<glyph unicode="&#x2014;" horiz-adv-x="1575" d="M1470 614H103V822H1470V614Z" />
<glyph unicode="&#x2018;" horiz-adv-x="457" d="M101 1197Q101 1262 124 1330T189 1460T282 1566L409 1489Q369 1427 343 1358T317 1199V1056H101V1197Z" />
<glyph unicode="&#x2019;" horiz-adv-x="451" d="M362 1390Q362 1326 339 1258T275 1128T182 1021L55 1098Q95 1160 120 1230T146 1389V1536H362V1390Z" />
<glyph unicode="&#x201a;" horiz-adv-x="476" d="M363 70Q363 7 340 -61T276 -192T182 -298L56 -221Q97 -159 119 -90T142 69V214H364L363 70Z" />
<glyph unicode="&#x201c;" horiz-adv-x="798" d="M110 1197Q110 1262 133 1330T198 1460T291 1566L418 1489Q378 1427 352 1358T326 1199V1056H110V1197ZM445 1197Q445 1262 468 1330T533 1460T626 1566L753 1489Q713 1427 687 1358T661 1199V1056H445V1197Z" />
<glyph unicode="&#x201d;" horiz-adv-x="805" d="M375 1390Q375 1326 352 1258T288 1128T195 1021L68 1098Q108 1160 133 1230T159 1389V1536H375V1390ZM710 1390Q710 1326 687 1258T623 1128T530 1021L403 1098Q443 1160 468 1230T494 1389V1536H710V1390Z" />
<glyph unicode="&#x201e;" horiz-adv-x="789" d="M363 70Q363 4 341 -68T280 -206T188 -318L56 -241Q97 -175 119 -101T142 69V258H364L363 70ZM693 70Q693 4 670 -68T605 -206T512 -318L381 -241Q421 -175 446 -101T471 69V258H693V70Z" />
<glyph unicode="&#x2022;" horiz-adv-x="722" d="M137 768Q137 865 197 926T362 988Q469 988 529 927T590 768V730Q590 634 530 573T364 512Q259 512 198 573T137 730V768Z" />
<glyph unicode="&#x2039;" horiz-adv-x="631" d="M317 529L108 530V543L393 933H566L317 529ZM566 135H393L108 524V537L317 538L566 135Z" />
<glyph unicode="&#x203a;" horiz-adv-x="618" d="M332 537L541 536V523L256 134H84L332 537ZM256 932L541 542V529L332 528L84 932H256Z" />
</font>
</defs>
</svg>
